<mxfile host="app.diagrams.net" modified="2024-05-23T21:30:24.103Z" agent="Mozilla/5.0 (Macintosh; Intel Mac OS X 10_15_7) AppleWebKit/605.1.15 (KHTML, like Gecko) Version/17.4.1 Safari/605.1.15" version="24.4.7" etag="M9VhfK2xcJK9yRH4a0Ao" type="github">
  <diagram name="Page-1" id="edAXpi7zFrGt4sWlyPVN">
    <mxGraphModel>
      <root>
        <mxCell id="0" />
        <mxCell id="1" parent="0" />
      </root>
    </mxGraphModel>
  </diagram>
</mxfile>
